<svg xmlns="http://www.w3.org/2000/svg" width="640" height="455" viewBox="0 0 640 455">
<title>Соседние пары для генератора с периодом 10</title>
<rect width="100%" height="100%" fill="#ffffff"/>
<text x="25" y="27" font-family="Arial" font-size="18" fill="#24344a" text-anchor="start">Равные частоты цифр скрывают зависимость</text>
<text x="275" y="58" font-family="Arial" font-size="14" fill="#24344a" text-anchor="middle">Следующая цифра</text>
<text x="144" y="85" font-family="Arial" font-size="12" fill="#24344a" text-anchor="middle">0</text>
<text x="115" y="111" font-family="Arial" font-size="12" fill="#24344a" text-anchor="end">0</text>
<text x="173" y="85" font-family="Arial" font-size="12" fill="#24344a" text-anchor="middle">1</text>
<text x="115" y="140" font-family="Arial" font-size="12" fill="#24344a" text-anchor="end">1</text>
<text x="202" y="85" font-family="Arial" font-size="12" fill="#24344a" text-anchor="middle">2</text>
<text x="115" y="169" font-family="Arial" font-size="12" fill="#24344a" text-anchor="end">2</text>
<text x="231" y="85" font-family="Arial" font-size="12" fill="#24344a" text-anchor="middle">3</text>
<text x="115" y="198" font-family="Arial" font-size="12" fill="#24344a" text-anchor="end">3</text>
<text x="260" y="85" font-family="Arial" font-size="12" fill="#24344a" text-anchor="middle">4</text>
<text x="115" y="227" font-family="Arial" font-size="12" fill="#24344a" text-anchor="end">4</text>
<text x="289" y="85" font-family="Arial" font-size="12" fill="#24344a" text-anchor="middle">5</text>
<text x="115" y="256" font-family="Arial" font-size="12" fill="#24344a" text-anchor="end">5</text>
<text x="318" y="85" font-family="Arial" font-size="12" fill="#24344a" text-anchor="middle">6</text>
<text x="115" y="285" font-family="Arial" font-size="12" fill="#24344a" text-anchor="end">6</text>
<text x="347" y="85" font-family="Arial" font-size="12" fill="#24344a" text-anchor="middle">7</text>
<text x="115" y="314" font-family="Arial" font-size="12" fill="#24344a" text-anchor="end">7</text>
<text x="376" y="85" font-family="Arial" font-size="12" fill="#24344a" text-anchor="middle">8</text>
<text x="115" y="343" font-family="Arial" font-size="12" fill="#24344a" text-anchor="end">8</text>
<text x="405" y="85" font-family="Arial" font-size="12" fill="#24344a" text-anchor="middle">9</text>
<text x="115" y="372" font-family="Arial" font-size="12" fill="#24344a" text-anchor="end">9</text>
<rect x="130.00" y="92.00" width="27.00" height="27.00" fill="#e9edf2"/>
<rect x="159.00" y="92.00" width="27.00" height="27.00" fill="#167d8d"/>
<rect x="188.00" y="92.00" width="27.00" height="27.00" fill="#e9edf2"/>
<rect x="217.00" y="92.00" width="27.00" height="27.00" fill="#e9edf2"/>
<rect x="246.00" y="92.00" width="27.00" height="27.00" fill="#e9edf2"/>
<rect x="275.00" y="92.00" width="27.00" height="27.00" fill="#e9edf2"/>
<rect x="304.00" y="92.00" width="27.00" height="27.00" fill="#e9edf2"/>
<rect x="333.00" y="92.00" width="27.00" height="27.00" fill="#e9edf2"/>
<rect x="362.00" y="92.00" width="27.00" height="27.00" fill="#e9edf2"/>
<rect x="391.00" y="92.00" width="27.00" height="27.00" fill="#e9edf2"/>
<rect x="130.00" y="121.00" width="27.00" height="27.00" fill="#e9edf2"/>
<rect x="159.00" y="121.00" width="27.00" height="27.00" fill="#e9edf2"/>
<rect x="188.00" y="121.00" width="27.00" height="27.00" fill="#167d8d"/>
<rect x="217.00" y="121.00" width="27.00" height="27.00" fill="#e9edf2"/>
<rect x="246.00" y="121.00" width="27.00" height="27.00" fill="#e9edf2"/>
<rect x="275.00" y="121.00" width="27.00" height="27.00" fill="#e9edf2"/>
<rect x="304.00" y="121.00" width="27.00" height="27.00" fill="#e9edf2"/>
<rect x="333.00" y="121.00" width="27.00" height="27.00" fill="#e9edf2"/>
<rect x="362.00" y="121.00" width="27.00" height="27.00" fill="#e9edf2"/>
<rect x="391.00" y="121.00" width="27.00" height="27.00" fill="#e9edf2"/>
<rect x="130.00" y="150.00" width="27.00" height="27.00" fill="#e9edf2"/>
<rect x="159.00" y="150.00" width="27.00" height="27.00" fill="#e9edf2"/>
<rect x="188.00" y="150.00" width="27.00" height="27.00" fill="#e9edf2"/>
<rect x="217.00" y="150.00" width="27.00" height="27.00" fill="#167d8d"/>
<rect x="246.00" y="150.00" width="27.00" height="27.00" fill="#e9edf2"/>
<rect x="275.00" y="150.00" width="27.00" height="27.00" fill="#e9edf2"/>
<rect x="304.00" y="150.00" width="27.00" height="27.00" fill="#e9edf2"/>
<rect x="333.00" y="150.00" width="27.00" height="27.00" fill="#e9edf2"/>
<rect x="362.00" y="150.00" width="27.00" height="27.00" fill="#e9edf2"/>
<rect x="391.00" y="150.00" width="27.00" height="27.00" fill="#e9edf2"/>
<rect x="130.00" y="179.00" width="27.00" height="27.00" fill="#e9edf2"/>
<rect x="159.00" y="179.00" width="27.00" height="27.00" fill="#e9edf2"/>
<rect x="188.00" y="179.00" width="27.00" height="27.00" fill="#e9edf2"/>
<rect x="217.00" y="179.00" width="27.00" height="27.00" fill="#e9edf2"/>
<rect x="246.00" y="179.00" width="27.00" height="27.00" fill="#167d8d"/>
<rect x="275.00" y="179.00" width="27.00" height="27.00" fill="#e9edf2"/>
<rect x="304.00" y="179.00" width="27.00" height="27.00" fill="#e9edf2"/>
<rect x="333.00" y="179.00" width="27.00" height="27.00" fill="#e9edf2"/>
<rect x="362.00" y="179.00" width="27.00" height="27.00" fill="#e9edf2"/>
<rect x="391.00" y="179.00" width="27.00" height="27.00" fill="#e9edf2"/>
<rect x="130.00" y="208.00" width="27.00" height="27.00" fill="#e9edf2"/>
<rect x="159.00" y="208.00" width="27.00" height="27.00" fill="#e9edf2"/>
<rect x="188.00" y="208.00" width="27.00" height="27.00" fill="#e9edf2"/>
<rect x="217.00" y="208.00" width="27.00" height="27.00" fill="#e9edf2"/>
<rect x="246.00" y="208.00" width="27.00" height="27.00" fill="#e9edf2"/>
<rect x="275.00" y="208.00" width="27.00" height="27.00" fill="#167d8d"/>
<rect x="304.00" y="208.00" width="27.00" height="27.00" fill="#e9edf2"/>
<rect x="333.00" y="208.00" width="27.00" height="27.00" fill="#e9edf2"/>
<rect x="362.00" y="208.00" width="27.00" height="27.00" fill="#e9edf2"/>
<rect x="391.00" y="208.00" width="27.00" height="27.00" fill="#e9edf2"/>
<rect x="130.00" y="237.00" width="27.00" height="27.00" fill="#e9edf2"/>
<rect x="159.00" y="237.00" width="27.00" height="27.00" fill="#e9edf2"/>
<rect x="188.00" y="237.00" width="27.00" height="27.00" fill="#e9edf2"/>
<rect x="217.00" y="237.00" width="27.00" height="27.00" fill="#e9edf2"/>
<rect x="246.00" y="237.00" width="27.00" height="27.00" fill="#e9edf2"/>
<rect x="275.00" y="237.00" width="27.00" height="27.00" fill="#e9edf2"/>
<rect x="304.00" y="237.00" width="27.00" height="27.00" fill="#167d8d"/>
<rect x="333.00" y="237.00" width="27.00" height="27.00" fill="#e9edf2"/>
<rect x="362.00" y="237.00" width="27.00" height="27.00" fill="#e9edf2"/>
<rect x="391.00" y="237.00" width="27.00" height="27.00" fill="#e9edf2"/>
<rect x="130.00" y="266.00" width="27.00" height="27.00" fill="#e9edf2"/>
<rect x="159.00" y="266.00" width="27.00" height="27.00" fill="#e9edf2"/>
<rect x="188.00" y="266.00" width="27.00" height="27.00" fill="#e9edf2"/>
<rect x="217.00" y="266.00" width="27.00" height="27.00" fill="#e9edf2"/>
<rect x="246.00" y="266.00" width="27.00" height="27.00" fill="#e9edf2"/>
<rect x="275.00" y="266.00" width="27.00" height="27.00" fill="#e9edf2"/>
<rect x="304.00" y="266.00" width="27.00" height="27.00" fill="#e9edf2"/>
<rect x="333.00" y="266.00" width="27.00" height="27.00" fill="#167d8d"/>
<rect x="362.00" y="266.00" width="27.00" height="27.00" fill="#e9edf2"/>
<rect x="391.00" y="266.00" width="27.00" height="27.00" fill="#e9edf2"/>
<rect x="130.00" y="295.00" width="27.00" height="27.00" fill="#e9edf2"/>
<rect x="159.00" y="295.00" width="27.00" height="27.00" fill="#e9edf2"/>
<rect x="188.00" y="295.00" width="27.00" height="27.00" fill="#e9edf2"/>
<rect x="217.00" y="295.00" width="27.00" height="27.00" fill="#e9edf2"/>
<rect x="246.00" y="295.00" width="27.00" height="27.00" fill="#e9edf2"/>
<rect x="275.00" y="295.00" width="27.00" height="27.00" fill="#e9edf2"/>
<rect x="304.00" y="295.00" width="27.00" height="27.00" fill="#e9edf2"/>
<rect x="333.00" y="295.00" width="27.00" height="27.00" fill="#e9edf2"/>
<rect x="362.00" y="295.00" width="27.00" height="27.00" fill="#167d8d"/>
<rect x="391.00" y="295.00" width="27.00" height="27.00" fill="#e9edf2"/>
<rect x="130.00" y="324.00" width="27.00" height="27.00" fill="#e9edf2"/>
<rect x="159.00" y="324.00" width="27.00" height="27.00" fill="#e9edf2"/>
<rect x="188.00" y="324.00" width="27.00" height="27.00" fill="#e9edf2"/>
<rect x="217.00" y="324.00" width="27.00" height="27.00" fill="#e9edf2"/>
<rect x="246.00" y="324.00" width="27.00" height="27.00" fill="#e9edf2"/>
<rect x="275.00" y="324.00" width="27.00" height="27.00" fill="#e9edf2"/>
<rect x="304.00" y="324.00" width="27.00" height="27.00" fill="#e9edf2"/>
<rect x="333.00" y="324.00" width="27.00" height="27.00" fill="#e9edf2"/>
<rect x="362.00" y="324.00" width="27.00" height="27.00" fill="#e9edf2"/>
<rect x="391.00" y="324.00" width="27.00" height="27.00" fill="#167d8d"/>
<rect x="130.00" y="353.00" width="27.00" height="27.00" fill="#167d8d"/>
<rect x="159.00" y="353.00" width="27.00" height="27.00" fill="#e9edf2"/>
<rect x="188.00" y="353.00" width="27.00" height="27.00" fill="#e9edf2"/>
<rect x="217.00" y="353.00" width="27.00" height="27.00" fill="#e9edf2"/>
<rect x="246.00" y="353.00" width="27.00" height="27.00" fill="#e9edf2"/>
<rect x="275.00" y="353.00" width="27.00" height="27.00" fill="#e9edf2"/>
<rect x="304.00" y="353.00" width="27.00" height="27.00" fill="#e9edf2"/>
<rect x="333.00" y="353.00" width="27.00" height="27.00" fill="#e9edf2"/>
<rect x="362.00" y="353.00" width="27.00" height="27.00" fill="#e9edf2"/>
<rect x="391.00" y="353.00" width="27.00" height="27.00" fill="#e9edf2"/>
<text x="30" y="253" font-family="Arial" font-size="13" fill="#24344a" text-anchor="start">Текущая</text>
<text x="30" y="272" font-family="Arial" font-size="13" fill="#24344a" text-anchor="start">цифра</text>
<rect x="459.00" y="120.00" width="20.00" height="20.00" fill="#167d8d"/>
<text x="487" y="135" font-family="Arial" font-size="12" fill="#24344a" text-anchor="start">999–1000 пар</text>
<rect x="459.00" y="155.00" width="20.00" height="20.00" fill="#e9edf2"/>
<text x="487" y="170" font-family="Arial" font-size="12" fill="#24344a" text-anchor="start">0 пар</text>
<text x="130" y="415" font-family="Arial" font-size="13" fill="#24344a" text-anchor="start">Всего наблюдений пар: 9999. Переход всегда один.</text>
</svg>